<?xml version="1.0" encoding="utf-8"?>
<svg version="1.1" xmlns="http://www.w3.org/2000/svg" xmlns:xlink="http://www.w3.org/1999/xlink" x="0px"
	 y="0px" width="155px" height="28px" viewBox="0 0 155 28" enable-background="new 0 0 155 28" xml:space="preserve">
<path fill="#0068B6" d="M125.2,2.5c2.5,1.5,4.1,4,4.1,6.9c0,1.9-0.7,3.8-2,5.2c-1.5,1.6-3.7,2.1-5.7,2.6c-1.4,0.3-3.1,0.5-4.5,1.1
	c-1.5,0.6-3,1.5-3,3.4l15.6,0v5.1h-21.4v-4.4c0-2.7,1.2-5.2,4-7.1c2-1.4,4.3-2.1,6.7-2.5c2.1-0.4,4.9-0.6,4.9-3.4
	c0-2.7-3.4-3.6-5.7-3.5c-2.7,0.2-4.6,1.2-6,2.7l-3.8-3.5c2-2.4,5.8-4.3,9.8-4.4C120.7,0.8,123.2,1.3,125.2,2.5z"/>
<path fill="#0068B6" d="M131.2,15.6c-0.8,1-1.5,2.4-0.9,4.4c0.5,1.1,1.4,2.3,3.9,2.3h10.7v4.5h5.5v-4.5h4.5v-4.6h-4.5
	c0,0,0-13.1,0-13.1c0-2-1.5-3.4-3.6-3.6c-1.7-0.2-3.6,0.4-4.7,1.9L131.2,15.6z M144.9,6.6v11.1h-9.4L144.9,6.6z"/>
<path fill="#00101D" d="M76,16.9H61.8v10h-5.5l0-18.5c0-4.3,2.6-7.1,7.4-7.1l13.3,0v5.1l-12.4,0c-2.1,0-2.8,1-2.8,3c0,0.4,0,3,0,3
	l14.2,0V16.9z"/>
<path fill="#00101D" d="M105.5,12.3c-0.3-2.8-1.8-5.7-3.7-7.6c-2.4-2.4-5.7-3.9-9.4-3.9c-7.3,0-13.2,5.9-13.2,13.2
	c0,4.7,2.5,8.9,6.3,11.2c2.1,1.3,4.5,1.9,6.9,1.9c3.6,0,7-1.5,9.4-4L98,19.7c-1.4,1.3-3.4,2.2-5.5,2.2c-2.1,0-4.2-0.9-5.7-2.4
	c-0.8-0.8-1.4-1.8-1.8-2.7h20.3C105.3,16.9,105.8,15,105.5,12.3z M84.6,12.3c0.3-1.4,1-2.8,2.1-3.9c2.6-2.6,6.6-3.1,9.6-1.4
	c2.2,1.2,3.5,3.2,3.9,5.3H84.6z"/>
<path fill="#00101D" d="M19.9,19.9l3.7,3.9c-2.5,2.5-5.9,4-9.8,4C6.2,27.8,0.1,21.6,0.1,14c0-7.6,6.2-13.8,13.8-13.8
	c3.8,0,7.3,1.6,9.8,4.1l-4.1,3.6c-1.5-1.4-3.5-2.3-5.7-2.3c-4.6,0-8.4,3.8-8.4,8.4c0,4.6,3.8,8.4,8.4,8.4
	C16.3,22.4,18.4,21.4,19.9,19.9z"/>
<path fill="#00101D" d="M45.3,1.2v2.7c-1.6-2-4.8-3.1-7.6-3.1c-7.3,0-13.2,5.9-13.2,13.2c0,7.2,5.9,13.1,13,13.1
	c2.8,0,5.9-0.8,7.8-3.1v2.8h5.6V1.2H45.3z M37.6,22c-4.4,0-8-3.6-8-8c0-4.4,3.6-8,8-8c4.4,0,8,3.6,8,8C45.6,18.4,42.1,22,37.6,22z"
	/>
</svg>
